<?xml version="1.0" encoding="UTF-8"?>
<!DOCTYPE svg PUBLIC "-//W3C//DTD SVG 1.1//EN" "http://www.w3.org/Graphics/SVG/1.1/DTD/svg11.dtd">
<!-- Creator: CorelDRAW 2019 (64-Bit) -->
<svg xmlns="http://www.w3.org/2000/svg" xml:space="preserve" width="73.6808mm" height="21.0531mm" version="1.1" style="shape-rendering:geometricPrecision; text-rendering:geometricPrecision; image-rendering:optimizeQuality; fill-rule:evenodd; clip-rule:evenodd"
viewBox="0 0 7491.14 2140.47"
 xmlns:xlink="http://www.w3.org/1999/xlink"
 xmlns:xodm="http://www.corel.com/coreldraw/odm/2003">
 <defs>
  <style type="text/css">
   <![CDATA[
    .fil1 {fill:#FEFEFE;fill-rule:nonzero}
    .fil2 {fill:#D95900;fill-rule:nonzero}
    .fil0 {fill:url(#id0)}
   ]]>
  </style>
  <linearGradient id="id0" gradientUnits="userSpaceOnUse" x1="6881.53" y1="1070.64" x2="4503.56" y2="1070.64">
   <stop offset="0" style="stop-opacity:1; stop-color:#0071B9"/>
   <stop offset="1" style="stop-opacity:1; stop-color:#005284"/>
  </linearGradient>
 </defs>
 <g id="Katman_x0020_1">
  <metadata id="CorelCorpID_0Corel-Layer"/>
  <path class="fil0" d="M6323.67 2134.98l6.29 0c132.29,-0.08 274.88,-2.62 1161.18,-6.96l0 0 0 -2114.75c-900.37,-4.37 -1033.22,-6.99 -1167.47,-6.99l0 0c-1781.52,0 -3425.58,396.08 -4750.79,1064.39l0 0c1325.21,668.46 2969.28,1064.32 4750.79,1064.32z"/>
  <polygon class="fil1" points="4022.43,779.58 3698.16,779.58 3698.16,554.33 4542.36,554.33 4542.36,779.58 4217.4,779.58 4217.4,1529.23 4022.43,1529.23 "/>
  <path class="fil1" d="M4811.99 1282.06c13.92,14.27 27.65,20.41 44.08,21.88l519.61 0 0 225.31 -519.61 0c-71.27,0 -131.16,-28.26 -183.24,-88.05 -50.4,-58.43 -75,-127.55 -76.18,-211.22l0 -376.21c0,-82.14 24.6,-151.54 76.18,-211.4 50.89,-58.36 110.65,-86.4 183.24,-88.06l511.28 0 0 225.25 -511.28 0c-17.93,0 -32.89,6.34 -46.63,22.12 -10.69,12.44 -16.46,29.77 -17.65,52.09l0 75.46 552.5 0 0 225.28 -552.5 0 0 75.47c0,18.97 6.96,36.04 20.19,52.08z"/>
  <path class="fil1" d="M5700.43 1529.24c-70.76,0 -130.98,-28.22 -182.91,-88.06 -50.57,-58.43 -74.82,-127.55 -76.01,-211.22l0 -376.21c0,-82.13 24.25,-151.54 76.01,-211.39 50.61,-58.36 110.65,-86.41 182.91,-88.06l520.29 0 0 225.28 -520.29 0c-14.92,0 -28.65,6.31 -43.61,22.12 -13.56,13.92 -20.34,31.21 -20.34,52.04l0 376.21c0,20.66 5.42,37.98 17.65,53.52 13.74,12.87 28.83,19 46.3,20.48l520.29 0 0 225.28 -520.29 0z"/>
  <polygon class="fil1" points="6963.07,559.16 6963.07,931.13 6494.9,931.13 6494.9,559.16 6299.96,559.16 6299.96,1534.09 6494.9,1534.09 6494.9,1138.26 6963.07,1138.26 6963.07,1534.09 7158.08,1534.09 7158.08,559.16 "/>
  <polygon class="fil2" points="-0,0 3838.16,0 3838.16,2140.47 -0,2140.47 "/>
  <path class="fil1" d="M854.84 1303.95l129.8 0c17.75,0 32.67,-6.09 44.94,-20.45 12.19,-13.95 17.89,-31.6 19.15,-53.55l0 -675.62 195.15 0 0 675.62c0,82 -24.63,152.8 -76.5,212.66 -49.32,56.7 -109.18,85.15 -182.74,86.61l-455.62 0c-71.23,0 -131.09,-28.22 -183.14,-88.05 -50.64,-58.43 -75.06,-127.51 -76.54,-211.23l0 -675.62 195.4 0 0 675.62c0,19.01 6.53,36.05 20.42,52.12 13.31,14.27 27.22,20.42 43.86,21.88l130.85 0 0 -749.61 194.97 0 0 749.61z"/>
  <path class="fil1" d="M1525.05 1282.06c13.71,14.27 26.97,20.41 43.62,21.88l519.89 0 0 225.31 -519.89 0c-70.8,0 -131.09,-28.26 -182.93,-88.05 -50.39,-58.43 -75.07,-127.55 -76.54,-211.22l0 -376.21c0,-82.14 24.68,-151.54 76.54,-211.4 50.78,-58.36 110.62,-86.4 182.93,-88.06l511.53 0 0 225.25 -511.53 0c-17.68,0 -32.68,6.34 -46.6,22.12 -10.73,12.44 -16.21,29.77 -17.68,52.09l0 75.46 552.57 0 0 225.28 -552.57 0 0 75.47c0,18.97 6.95,36.04 20.66,52.08z"/>
  <path class="fil1" d="M3778.08 1529.24l-520.25 0c-72.31,-1.47 -132.35,-29.91 -182.78,-88.06 -51.72,-59.86 -76,-129.26 -76,-211.22l0 -675.66 194.97 0 0 675.66c1.55,20.66 6.78,37.98 17.32,53.52 14.06,14.38 28.83,20.48 46.48,20.48l520.25 0 0 225.28z"/>
  <path class="fil1" d="M2937.29 1529.24l-520.1 0c-72.09,-1.47 -132.38,-29.91 -183,-88.06 -51.82,-59.86 -76.03,-129.26 -76.03,-211.22l0 -675.66 194.89 0 0 675.66c1.51,20.66 6.75,37.98 17.76,53.52 13.69,14.38 28.62,20.48 46.37,20.48l520.1 0 0 225.28z"/>
  <path class="fil1" d="M7247.62 329.24c7.82,0 12.23,-3.83 12.23,-9.93 0,-6.74 -5.09,-9.9 -12.23,-9.9l-11.18 0 0 19.84 11.18 0zm-21.7 -28.9l22.73 0c12.91,0 22.2,6.56 22.2,18.32 0,9.55 -5.77,14.78 -12.87,17.51l14.6 22.35 -12.56 0 -13.1 -20.66 -10.5 0 0 20.66 -10.51 0 0 -58.18zm67.21 30.77l0 -1.86c0,-27.19 -19.51,-49.35 -46.67,-49.35 -27.51,0 -47.52,22.59 -47.52,49.78l0 1.83c0,27.23 19.65,49.36 47.52,49.36 26.97,0 46.67,-22.13 46.67,-49.76zm-100.64 0.4l0 -1.83c0,-31.06 22.92,-55.66 53.98,-55.66 30.52,0 53.95,24.6 53.95,55.24l0 1.86c0,30.78 -23.6,55.85 -53.95,55.85 -31.06,0 -53.98,-24.86 -53.98,-55.45z"/>
 </g>
</svg>
